<?xml version="1.0" encoding="UTF-8" standalone="no" ?>
<!DOCTYPE svg PUBLIC "-//W3C//DTD SVG 1.1//EN" "http://www.w3.org/Graphics/SVG/1.1/DTD/svg11.dtd">
<svg xmlns="http://www.w3.org/2000/svg" xmlns:xlink="http://www.w3.org/1999/xlink" version="1.1" width="2000" height="1080" viewBox="0 0 2000 1080" xml:space="preserve">
<desc>Created with Fabric.js 5.2.4</desc>
<defs>
</defs>
<g transform="matrix(1 0 0 1 1000 540)" id="b68dfd8c-9783-4bf9-93cd-8a339c034afd"  >
<rect style="stroke: none; stroke-width: 1; stroke-dasharray: none; stroke-linecap: butt; stroke-dashoffset: 0; stroke-linejoin: miter; stroke-miterlimit: 4; fill: rgb(255,255,255); fill-rule: nonzero; opacity: 1; visibility: hidden;" vector-effect="non-scaling-stroke"  x="-1000" y="-540" rx="0" ry="0" width="2000" height="1080" />
</g>
<g transform="matrix(Infinity NaN NaN Infinity 0 0)" id="5eaf4dfc-9962-4a72-9906-910b537c7588"  >
</g>
<g transform="matrix(23.27 0 0 23.27 431.49 428.53)" id="60c5233f-730c-40bb-acf9-c98e79033389"  >
<path style="stroke: rgb(0,0,0); stroke-width: 0; stroke-dasharray: none; stroke-linecap: butt; stroke-dashoffset: 0; stroke-linejoin: miter; stroke-miterlimit: 4; fill: rgb(9,138,236); fill-rule: nonzero; opacity: 1;" vector-effect="non-scaling-stroke"  transform=" translate(-12, -12)" d="M 8 10 C 8 7.79086 9.79086 6 12 6 C 14.2091 6 16 7.79086 16 10 L 16 11 L 17 11 C 18.933 11 20.5 12.567 20.5 14.5 C 20.5 16.433 18.933 18 17 18 L 16 18 C 15.4477 18 15 18.4477 15 19 C 15 19.5523 15.4477 20 16 20 L 17 20 C 20.0376 20 22.5 17.5376 22.5 14.5 C 22.5 11.7793 20.5245 9.51997 17.9296 9.07824 C 17.4862 6.20213 15.0003 4 12 4 C 8.99974 4 6.51381 6.20213 6.07036 9.07824 C 3.47551 9.51997 1.5 11.7793 1.5 14.5 C 1.5 17.5376 3.96243 20 7 20 L 8 20 C 8.55228 20 9 19.5523 9 19 C 9 18.4477 8.55228 18 8 18 L 7 18 C 5.067 18 3.5 16.433 3.5 14.5 C 3.5 12.567 5.067 11 7 11 L 8 11 L 8 10 Z M 15.7071 13.2929 L 12.7071 10.2929 C 12.3166 9.90237 11.6834 9.90237 11.2929 10.2929 L 8.29289 13.2929 C 7.90237 13.6834 7.90237 14.3166 8.29289 14.7071 C 8.68342 15.0976 9.31658 15.0976 9.70711 14.7071 L 11 13.4142 L 11 19 C 11 19.5523 11.4477 20 12 20 C 12.5523 20 13 19.5523 13 19 L 13 13.4142 L 14.2929 14.7071 C 14.6834 15.0976 15.3166 15.0976 15.7071 14.7071 C 16.0976 14.3166 16.0976 13.6834 15.7071 13.2929 Z" stroke-linecap="round" />
</g>
<g transform="matrix(1 0 0 1 1036.8 447.46)" style="" id="222ea2c7-9d39-4bbf-8fc2-d2503fa29a88"  >
		<text xml:space="preserve" font-family="Raleway" font-size="176" font-style="normal" font-weight="900" style="stroke: none; stroke-width: 1; stroke-dasharray: none; stroke-linecap: butt; stroke-dashoffset: 0; stroke-linejoin: miter; stroke-miterlimit: 4; fill: rgb(9,138,236); fill-rule: nonzero; opacity: 1; white-space: pre;" ><tspan x="-362.03" y="55.29" >Uploads</tspan></text>
</g>
</svg>